<?xml version="1.0" encoding="UTF-8" standalone="no"?>
<!DOCTYPE svg PUBLIC "-//W3C//DTD SVG 1.1//EN"
 "http://www.w3.org/Graphics/SVG/1.1/DTD/svg11.dtd">
<!-- Generated by graphviz version 2.43.0 (0)
 -->
<!-- Title: snakemake_dag Pages: 1 -->
<svg width="303pt" height="548pt"
 viewBox="0.00 0.00 302.50 548.00" xmlns="http://www.w3.org/2000/svg" xmlns:xlink="http://www.w3.org/1999/xlink">
<g id="graph0" class="graph" transform="scale(1 1) rotate(0) translate(4 544)">
<title>snakemake_dag</title>
<polygon fill="white" stroke="transparent" points="-4,4 -4,-544 298.5,-544 298.5,4 -4,4"/>
<!-- 0 -->
<g id="node1" class="node">
<title>0</title>
<path fill="none" stroke="#bed856" stroke-width="2" d="M162,-36C162,-36 66,-36 66,-36 60,-36 54,-30 54,-24 54,-24 54,-12 54,-12 54,-6 60,0 66,0 66,0 162,0 162,0 168,0 174,-6 174,-12 174,-12 174,-24 174,-24 174,-30 168,-36 162,-36"/>
<text text-anchor="middle" x="114" y="-15.5" font-family="sans" font-size="10.00">differential_virulence</text>
</g>
<!-- 1 -->
<g id="node2" class="node">
<title>1</title>
<path fill="none" stroke="#56d88a" stroke-width="2" d="M146,-324C146,-324 12,-324 12,-324 6,-324 0,-318 0,-312 0,-312 0,-300 0,-300 0,-294 6,-288 12,-288 12,-288 146,-288 146,-288 152,-288 158,-294 158,-300 158,-300 158,-312 158,-312 158,-318 152,-324 146,-324"/>
<text text-anchor="middle" x="79" y="-303.5" font-family="sans" font-size="10.00">ipoolseq_assign_to_isites_pe</text>
</g>
<!-- 1&#45;&gt;0 -->
<g id="edge2" class="edge">
<title>1&#45;&gt;0</title>
<path fill="none" stroke="grey" stroke-width="2" d="M65.47,-287.67C44.21,-258.24 7.04,-196.57 24,-144 36.76,-104.44 67.2,-66.84 89.15,-43.4"/>
<polygon fill="grey" stroke="grey" stroke-width="2" points="91.84,-45.66 96.23,-36.01 86.79,-40.81 91.84,-45.66"/>
</g>
<!-- 5 -->
<g id="node6" class="node">
<title>5</title>
<path fill="none" stroke="#568ad8" stroke-width="2" d="M107.5,-180C107.5,-180 44.5,-180 44.5,-180 38.5,-180 32.5,-174 32.5,-168 32.5,-168 32.5,-156 32.5,-156 32.5,-150 38.5,-144 44.5,-144 44.5,-144 107.5,-144 107.5,-144 113.5,-144 119.5,-150 119.5,-156 119.5,-156 119.5,-168 119.5,-168 119.5,-174 113.5,-180 107.5,-180"/>
<text text-anchor="middle" x="76" y="-159.5" font-family="sans" font-size="10.00">trumicount_pe</text>
</g>
<!-- 1&#45;&gt;5 -->
<g id="edge8" class="edge">
<title>1&#45;&gt;5</title>
<path fill="none" stroke="grey" stroke-width="2" d="M67.53,-287.67C61.63,-277.69 55.04,-264.65 52,-252 48.27,-236.44 48.62,-231.64 52,-216 53.96,-206.92 57.61,-197.52 61.49,-189.2"/>
<polygon fill="grey" stroke="grey" stroke-width="2" points="64.73,-190.53 66.05,-180.02 58.46,-187.42 64.73,-190.53"/>
</g>
<!-- 6 -->
<g id="node7" class="node">
<title>6</title>
<path fill="none" stroke="#d85656" stroke-width="2" d="M107.5,-252C107.5,-252 72.5,-252 72.5,-252 66.5,-252 60.5,-246 60.5,-240 60.5,-240 60.5,-228 60.5,-228 60.5,-222 66.5,-216 72.5,-216 72.5,-216 107.5,-216 107.5,-216 113.5,-216 119.5,-222 119.5,-228 119.5,-228 119.5,-240 119.5,-240 119.5,-246 113.5,-252 107.5,-252"/>
<text text-anchor="middle" x="90" y="-231.5" font-family="sans" font-size="10.00">bam_idx</text>
</g>
<!-- 1&#45;&gt;6 -->
<g id="edge10" class="edge">
<title>1&#45;&gt;6</title>
<path fill="none" stroke="grey" stroke-width="2" d="M81.72,-287.7C82.93,-279.98 84.39,-270.71 85.74,-262.11"/>
<polygon fill="grey" stroke="grey" stroke-width="2" points="89.22,-262.53 87.31,-252.1 82.3,-261.44 89.22,-262.53"/>
</g>
<!-- 7 -->
<g id="node8" class="node">
<title>7</title>
<path fill="none" stroke="#d88d56" stroke-width="2" d="M165,-108C165,-108 121,-108 121,-108 115,-108 109,-102 109,-96 109,-96 109,-84 109,-84 109,-78 115,-72 121,-72 121,-72 165,-72 165,-72 171,-72 177,-78 177,-84 177,-84 177,-96 177,-96 177,-102 171,-108 165,-108"/>
<text text-anchor="middle" x="143" y="-87.5" font-family="sans" font-size="10.00">read_stats</text>
</g>
<!-- 1&#45;&gt;7 -->
<g id="edge11" class="edge">
<title>1&#45;&gt;7</title>
<path fill="none" stroke="grey" stroke-width="2" d="M100.82,-287.98C111.22,-278.57 122.74,-265.97 129,-252 148.49,-208.53 148.29,-151.89 145.94,-118.68"/>
<polygon fill="grey" stroke="grey" stroke-width="2" points="149.4,-118.05 145.08,-108.37 142.42,-118.62 149.4,-118.05"/>
</g>
<!-- 2 -->
<g id="node3" class="node">
<title>2</title>
<path fill="none" stroke="#56c1d8" stroke-width="2" d="M202,-396C202,-396 170,-396 170,-396 164,-396 158,-390 158,-384 158,-384 158,-372 158,-372 158,-366 164,-360 170,-360 170,-360 202,-360 202,-360 208,-360 214,-366 214,-372 214,-372 214,-384 214,-384 214,-390 208,-396 202,-396"/>
<text text-anchor="middle" x="186" y="-375.5" font-family="sans" font-size="10.00">map_pe</text>
</g>
<!-- 2&#45;&gt;1 -->
<g id="edge5" class="edge">
<title>2&#45;&gt;1</title>
<path fill="none" stroke="grey" stroke-width="2" d="M159.82,-359.88C145.96,-350.81 128.76,-339.55 113.79,-329.76"/>
<polygon fill="grey" stroke="grey" stroke-width="2" points="115.56,-326.74 105.28,-324.19 111.73,-332.59 115.56,-326.74"/>
</g>
<!-- 2&#45;&gt;7 -->
<g id="edge12" class="edge">
<title>2&#45;&gt;7</title>
<path fill="none" stroke="grey" stroke-width="2" d="M185.26,-359.86C183.32,-321.04 177.03,-223.6 160,-144 158.16,-135.4 155.48,-126.22 152.79,-117.95"/>
<polygon fill="grey" stroke="grey" stroke-width="2" points="156.09,-116.77 149.56,-108.43 149.46,-119.02 156.09,-116.77"/>
</g>
<!-- 3 -->
<g id="node4" class="node">
<title>3</title>
<path fill="none" stroke="#88d856" stroke-width="2" d="M252.5,-468C252.5,-468 175.5,-468 175.5,-468 169.5,-468 163.5,-462 163.5,-456 163.5,-456 163.5,-444 163.5,-444 163.5,-438 169.5,-432 175.5,-432 175.5,-432 252.5,-432 252.5,-432 258.5,-432 264.5,-438 264.5,-444 264.5,-444 264.5,-456 264.5,-456 264.5,-462 258.5,-468 252.5,-468"/>
<text text-anchor="middle" x="214" y="-447.5" font-family="sans" font-size="10.00">ipoolseq_trim_pe</text>
</g>
<!-- 3&#45;&gt;2 -->
<g id="edge6" class="edge">
<title>3&#45;&gt;2</title>
<path fill="none" stroke="grey" stroke-width="2" d="M207.08,-431.7C203.93,-423.81 200.12,-414.3 196.62,-405.55"/>
<polygon fill="grey" stroke="grey" stroke-width="2" points="199.81,-404.09 192.84,-396.1 193.31,-406.69 199.81,-404.09"/>
</g>
<!-- 8 -->
<g id="node9" class="node">
<title>8</title>
<path fill="none" stroke="#59d856" stroke-width="2" d="M266,-324C266,-324 226,-324 226,-324 220,-324 214,-318 214,-312 214,-312 214,-300 214,-300 214,-294 220,-288 226,-288 226,-288 266,-288 266,-288 272,-288 278,-294 278,-300 278,-300 278,-312 278,-312 278,-318 272,-324 266,-324"/>
<text text-anchor="middle" x="246" y="-303.5" font-family="sans" font-size="10.00">fastqc_pe</text>
</g>
<!-- 3&#45;&gt;8 -->
<g id="edge14" class="edge">
<title>3&#45;&gt;8</title>
<path fill="none" stroke="grey" stroke-width="2" d="M217.86,-431.87C223.34,-407.56 233.42,-362.82 239.91,-334.01"/>
<polygon fill="grey" stroke="grey" stroke-width="2" points="243.34,-334.71 242.13,-324.19 236.51,-333.18 243.34,-334.71"/>
</g>
<!-- 4 -->
<g id="node5" class="node">
<title>4</title>
<path fill="none" stroke="#d8bc56" stroke-width="2" d="M282.5,-540C282.5,-540 145.5,-540 145.5,-540 139.5,-540 133.5,-534 133.5,-528 133.5,-528 133.5,-516 133.5,-516 133.5,-510 139.5,-504 145.5,-504 145.5,-504 282.5,-504 282.5,-504 288.5,-504 294.5,-510 294.5,-516 294.5,-516 294.5,-528 294.5,-528 294.5,-534 288.5,-540 282.5,-540"/>
<text text-anchor="middle" x="214" y="-519.5" font-family="sans" font-size="10.00">adapter_readthrough_trim_pe</text>
</g>
<!-- 4&#45;&gt;3 -->
<g id="edge7" class="edge">
<title>4&#45;&gt;3</title>
<path fill="none" stroke="grey" stroke-width="2" d="M214,-503.7C214,-495.98 214,-486.71 214,-478.11"/>
<polygon fill="grey" stroke="grey" stroke-width="2" points="217.5,-478.1 214,-468.1 210.5,-478.1 217.5,-478.1"/>
</g>
<!-- 5&#45;&gt;0 -->
<g id="edge4" class="edge">
<title>5&#45;&gt;0</title>
<path fill="none" stroke="grey" stroke-width="2" d="M80.58,-143.87C87.09,-119.56 99.06,-74.82 106.77,-46.01"/>
<polygon fill="grey" stroke="grey" stroke-width="2" points="110.2,-46.75 109.4,-36.19 103.43,-44.94 110.2,-46.75"/>
</g>
<!-- 5&#45;&gt;7 -->
<g id="edge13" class="edge">
<title>5&#45;&gt;7</title>
<path fill="none" stroke="grey" stroke-width="2" d="M92.56,-143.7C100.68,-135.22 110.59,-124.86 119.47,-115.58"/>
<polygon fill="grey" stroke="grey" stroke-width="2" points="122.24,-117.75 126.63,-108.1 117.19,-112.91 122.24,-117.75"/>
</g>
<!-- 6&#45;&gt;5 -->
<g id="edge9" class="edge">
<title>6&#45;&gt;5</title>
<path fill="none" stroke="grey" stroke-width="2" d="M86.54,-215.7C85,-207.98 83.14,-198.71 81.42,-190.11"/>
<polygon fill="grey" stroke="grey" stroke-width="2" points="84.81,-189.22 79.42,-180.1 77.95,-190.6 84.81,-189.22"/>
</g>
<!-- 7&#45;&gt;0 -->
<g id="edge3" class="edge">
<title>7&#45;&gt;0</title>
<path fill="none" stroke="grey" stroke-width="2" d="M135.83,-71.7C132.57,-63.81 128.63,-54.3 125,-45.55"/>
<polygon fill="grey" stroke="grey" stroke-width="2" points="128.15,-44 121.09,-36.1 121.68,-46.68 128.15,-44"/>
</g>
<!-- 8&#45;&gt;0 -->
<g id="edge1" class="edge">
<title>8&#45;&gt;0</title>
<path fill="none" stroke="grey" stroke-width="2" d="M245.44,-287.91C243.33,-247.09 233.35,-142.09 186,-72 177.96,-60.1 166.32,-49.88 154.74,-41.67"/>
<polygon fill="grey" stroke="grey" stroke-width="2" points="156.63,-38.72 146.37,-36.06 152.73,-44.54 156.63,-38.72"/>
</g>
</g>
</svg>
